<?xml version="1.0" encoding="utf-8"?>
<!-- Generator: Adobe Illustrator 22.1.0, SVG Export Plug-In . SVG Version: 6.00 Build 0)  -->
<svg version="1.1" id="Layer_1" xmlns="http://www.w3.org/2000/svg" xmlns:xlink="http://www.w3.org/1999/xlink" x="0px" y="0px"
	 viewBox="0 0 1080 1080" style="enable-background:new 0 0 1080 1080;" xml:space="preserve">
<g>
	<path d="M834.1,173.6c0,12.7,0,23.3,0,34.8c-13,1.1-26,0.3-39.9,3.6c35.1,64.5,42.2,130.3,10.2,198.6
		c21.4,27.2,24.1,60.2,26.1,93.2c7.7,125.1-42.2,228.9-119.5,322.5c-8.8,10.7-18.2,20.9-27.8,31.9c7.1,21.8,14.3,43.8,21.7,66.7
		c-39.3,55.5-90.5,92.3-160.6,93.1c-71.8,0.8-124.1-36.3-164.6-92.9c7.7-23.7,15.3-46.9,22.9-70.4c-30-33.1-57-68-79.7-106.1
		c-53-88.8-73.9-184.1-57.8-286.8c3.3-21.4,8.1-32.2,21-51.4c-31.3-67.2-25-132.9,10.2-197.8c-14.2-4-28.3-2.9-42.6-4.3
		c0-11.4,0-22.1,0-34.7c128.5,5.7,226.6,60.1,290.2,173.7C607.1,234.1,705.1,179.4,834.1,173.6z M635.7,817.8
		c-11.7-54-14.6-108.4-8.7-163.3c5.9-54.7,21-107,45.3-159c-49.3,15-90.8,38-126.9,71.2c-38-34.9-81.6-58.5-133.1-72.8
		c48.1,103.7,59.3,209.7,37.9,319.3c30.3,26.6,61.7,50.7,95.5,72.1C577.5,865,607.1,842.8,635.7,817.8z M545.4,521.3
		c45.9-34.8,96.8-55.8,152.1-67.5c25.2-5.3,46.3-19.1,62.4-39.4c28.1-35.3,34.5-76,27.9-119.4c-4.3-27.7-14.4-53.1-31.6-76.4
		c-10.3,3.4-19.9,6.6-30,9.9c43.1,53.4,25.1,111.3-2.9,138.7c-16.9,16.5-36.8,26.6-60.2,28.9c-34.1,3.4-62.8-8.7-86.9-34.1
		c-13.8,26.8-20.6,54.9-32.3,82.6c-11.9-28.2-18.7-56.9-32.8-83.2c-45.5,48.5-105.8,40.9-138.9,13.6c-18.4-15.2-30.6-34.2-35.1-57.7
		c-6.3-33.1,2.6-62.2,25.3-88.6c-10.2-3.4-19-6.3-28.3-9.3c-2.2,3.1-4.2,5.6-5.9,8.3c-17.1,27-25.7,56.6-27.6,88.4
		c-4,66.1,32,122.9,91.8,137.3C447.7,466.7,499.3,486.3,545.4,521.3z M671.9,819.5c2.9-3,5-5,6.8-7.2c18.5-21.4,35.4-44.1,50.7-67.9
		c54.2-84.4,78.9-175.6,62.8-276c-1.5-9.3-3.1-18.8-9.2-27.7c-16.6,18.3-35.6,31.6-57.6,40.1c-6.3,2.4-10,6.3-13.1,12
		c-45.4,84.7-61,175.1-51,270.2C663.3,781.5,666.2,800.1,671.9,819.5z M413.6,814.4c0.7-1.1,1.2-1.6,1.3-2.1
		c24-114.1,10.3-223-45.5-326c-1.1-2-2.6-4.3-4.5-5.2c-21.5-9.4-40.7-22.1-56.6-39.7C260.3,512.2,325.9,743.5,413.6,814.4z
		 M418.8,919.9c69.8,86.5,180.1,84,247-0.1c-6.7-21.1-13.6-42.7-20.8-65.4c-32.5,26.2-64.4,49.8-99.4,69.6
		c-37.1-20.9-70.8-46.4-104.6-73.8C433.3,874.4,426.1,897,418.8,919.9z M596.2,328.4c10.7,23.1,38.2,36.9,65.4,33.4
		c27.6-3.5,50.3-25.9,55.3-54.4c4.2-24.2-7.7-52.3-26.6-62c-7.5,4.4-15.7,8.1-22.4,14.5c20.8,14.8,27.6,29.2,22.7,47.7
		c-4,15.3-17.2,27.2-33.5,28.5c-21.3,1.7-35.1-9-43.2-29.9C607.4,314.3,601.7,321.5,596.2,328.4z M397.6,245.3
		c-22,14-32.7,42-26.4,67.8c6.3,26,29.6,46.5,55.5,48.9c27.6,2.6,53.2-11,63.9-34.2c-4.6-7.1-9.6-14.1-16.8-20.7
		c-7.8,20.8-21.7,32.1-44,29.9c-16.9-1.7-28.6-11.4-33.2-27.6c-6.5-22.5,3.4-38.6,24.2-50.1C412.2,254.2,404.8,249.6,397.6,245.3z"
		/>
	<path d="M363.7,147.3c80.9-56.2,283.2-56.5,362.3-0.6c-73.7,23.1-134.1,64.4-182,125.7C496.6,211.8,436.8,170.6,363.7,147.3z
		 M543.9,219.5c26.5-28,56.4-50.9,91.6-71.7c-62-11.8-120.5-11.9-182.1,0.6C488,169,517.5,191.6,543.9,219.5z"/>
</g>
</svg>
