<?xml version="1.0" encoding="utf-8"?>
<!-- Generator: Adobe Illustrator 22.1.0, SVG Export Plug-In . SVG Version: 6.00 Build 0)  -->
<svg version="1.1" id="Layer_1" xmlns="http://www.w3.org/2000/svg" xmlns:xlink="http://www.w3.org/1999/xlink" x="0px" y="0px"
	 viewBox="0 0 1080 1080" style="enable-background:new 0 0 1080 1080;" xml:space="preserve">
<style type="text/css">
	.st0{fill:#FFFFFF;}
	.st1{fill:none;stroke:#000000;stroke-width:22;stroke-miterlimit:10;}
</style>
<g>
	<path d="M-902.9,170.6c0,12.7,0,23.3,0,34.8c-13,1.1-26,0.3-39.9,3.6c35.1,64.5,42.2,130.3,10.2,198.6
		c21.4,27.2,24.1,60.2,26.1,93.2c7.7,125.1-42.2,228.9-119.5,322.5c-8.8,10.7-18.2,20.9-27.8,31.9c7.1,21.8,14.3,43.8,21.7,66.7
		c-39.3,55.5-90.5,92.3-160.6,93.1c-71.8,0.8-124.1-36.3-164.6-92.9c7.7-23.7,15.3-46.9,22.9-70.4c-30-33.1-57-68-79.7-106.1
		c-53-88.8-73.9-184.1-57.8-286.8c3.3-21.4,8.1-32.2,21-51.4c-31.3-67.2-25-132.9,10.2-197.8c-14.2-4-28.3-2.9-42.6-4.3
		c0-11.4,0-22.1,0-34.7c128.5,5.7,226.6,60.1,290.2,173.7C-1129.9,231.1-1031.9,176.4-902.9,170.6z M-1101.3,814.8
		c-11.7-54-14.6-108.4-8.7-163.3c5.9-54.7,21-107,45.3-159c-49.3,15-90.8,38-126.9,71.2c-38-34.9-81.6-58.5-133.1-72.8
		c48.1,103.7,59.3,209.7,37.9,319.3c30.3,26.6,61.7,50.7,95.5,72.1C-1159.5,862-1129.9,839.8-1101.3,814.8z M-1191.6,518.3
		c45.9-34.8,96.8-55.8,152.1-67.5c25.2-5.3,46.3-19.1,62.4-39.4c28.1-35.3,34.5-76,27.9-119.4c-4.3-27.7-14.4-53.1-31.6-76.4
		c-10.3,3.4-19.9,6.6-30,9.9c43.1,53.4,25.1,111.3-2.9,138.7c-16.9,16.5-36.8,26.6-60.2,28.9c-34.1,3.4-62.8-8.7-86.9-34.1
		c-13.8,26.8-20.6,54.9-32.3,82.6c-11.9-28.2-18.7-56.9-32.8-83.2c-45.5,48.5-105.8,40.9-138.9,13.6c-18.4-15.2-30.6-34.2-35.1-57.7
		c-6.3-33.1,2.6-62.2,25.3-88.6c-10.2-3.4-19-6.3-28.3-9.3c-2.2,3.1-4.2,5.6-5.9,8.3c-17.1,27-25.7,56.6-27.6,88.4
		c-4,66.1,32,122.9,91.8,137.3C-1289.3,463.7-1237.7,483.3-1191.6,518.3z M-1065.1,816.5c2.9-3,5-5,6.8-7.2
		c18.5-21.4,35.4-44.1,50.7-67.9c54.2-84.4,78.9-175.6,62.8-276c-1.5-9.3-3.1-18.8-9.2-27.7c-16.6,18.3-35.6,31.6-57.6,40.1
		c-6.3,2.4-10,6.3-13.1,12c-45.4,84.7-61,175.1-51,270.2C-1073.7,778.5-1070.8,797.1-1065.1,816.5z M-1323.4,811.4
		c0.7-1.1,1.2-1.6,1.3-2.1c24-114.1,10.3-223-45.5-326c-1.1-2-2.6-4.3-4.5-5.2c-21.5-9.4-40.7-22.1-56.6-39.7
		C-1476.7,509.2-1411.1,740.5-1323.4,811.4z M-1318.2,916.9c69.8,86.5,180.1,84,247-0.1c-6.7-21.1-13.6-42.7-20.8-65.4
		c-32.5,26.2-64.4,49.8-99.4,69.6c-37.1-20.9-70.8-46.4-104.6-73.8C-1303.7,871.4-1310.9,894-1318.2,916.9z M-1140.8,325.4
		c10.7,23.1,38.2,36.9,65.4,33.4c27.6-3.5,50.3-25.9,55.3-54.4c4.2-24.2-7.7-52.3-26.6-62c-7.5,4.4-15.7,8.1-22.4,14.5
		c20.8,14.8,27.6,29.2,22.7,47.7c-4,15.3-17.2,27.2-33.5,28.5c-21.3,1.7-35.1-9-43.2-29.9C-1129.6,311.3-1135.3,318.5-1140.8,325.4z
		 M-1339.4,242.3c-22,14-32.7,42-26.4,67.8c6.3,26,29.6,46.5,55.5,48.9c27.6,2.6,53.2-11,63.9-34.2c-4.6-7.1-9.6-14.1-16.8-20.7
		c-7.8,20.8-21.7,32.1-44,29.9c-16.9-1.7-28.6-11.4-33.2-27.6c-6.5-22.5,3.4-38.6,24.2-50.1
		C-1324.8,251.2-1332.2,246.6-1339.4,242.3z"/>
	<path d="M-1373.3,144.3c80.9-56.2,283.2-56.5,362.3-0.6c-73.7,23.1-134.1,64.4-182,125.7C-1240.4,208.8-1300.2,167.6-1373.3,144.3z
		 M-1193.1,216.5c26.5-28,56.4-50.9,91.6-71.7c-62-11.8-120.5-11.9-182.1,0.6C-1249,166-1219.5,188.6-1193.1,216.5z"/>
</g>
<path class="st0" d="M273,555c0-154.8,0-309.7-0.1-464.5c0-3.7,0.8-4.6,4.6-4.6c210,0.1,420,0.1,630,0c3.7,0,4.6,0.8,4.6,4.6
	c-0.1,309.7-0.1,619.3,0,929c0,3.7-0.8,4.6-4.6,4.6c-210-0.1-420-0.1-630,0c-3.7,0-4.6-0.8-4.6-4.6C273,864.7,273,709.8,273,555z
	 M769,392.9c0.7-20.8-4.2-40.9-10.8-57.9c-5.9-15.1-13.9-29.1-23.9-41.9c-4.8-6.2-7.1-7.9-14.3-5.5c-16.2,5.3-32.3,11.2-48.5,16.5
	c-3.1,1-6.9,1.6-10,0.8c-49.4-13.9-97.2,25.2-92.2,76.2c0.9,9.2-1.7,16.1-6.3,23.1c-6.2,9.7-6.3,9.8-12.2-0.3
	c-4.2-7.1-7.9-14-6.3-23.3c1.3-7.3,0.3-15.4-1.6-22.7c-10.5-40.7-49.2-63.1-90-52.6c-2.5,0.6-5.7,0.4-8.1-0.4
	c-15-5.2-29.9-10.9-44.9-16.2c-6.7-2.4-13-2.1-17.4,4.8c-2.8,4.3-5.8,8.5-8.9,12.7c-9.3,12.8-15.5,27.1-19.5,42.2
	c-2.6,9.9-4.9,20.1-5.6,30.2c-0.8,12.1-0.7,24.5,0.6,36.6c1.6,14,5.9,27.6,12.7,40.1c1.5,2.8,0.9,4.9-0.9,7.7
	c-3.8,6-8.1,12.1-9.8,18.8c-3.4,13.4-7,27.2-7.5,40.9c-0.9,22.7-1.7,45.5,2,68.2c3.5,21.7,8.4,42.9,16.1,63.5
	c6.7,17.9,14.8,35.1,24.1,51.9c17.2,31.2,38.8,59,62.2,85.6c2.4,2.7,3,5.3,1.9,8.7c-4.9,15-9.7,30-14.3,45.1c-0.6,2.1,0,5.3,1.2,7.2
	c2.9,4.6,6.3,9,10,13c11.7,12.5,24,24.2,39,32.9c26.3,15.2,53.8,23.7,84.5,19.7c13.5-1.8,26.5-4.9,38.8-10.5
	c26.9-12.2,48.7-30.8,66.1-54.7c2.5-3.4,2.5-6.3,1.2-10.1c-4.7-13.5-9.2-27-13.5-40.7c-0.6-2-0.4-5.2,0.8-6.8
	c3.4-4.7,7.7-8.7,11.4-13.2c11.3-13.9,23.1-27.4,33.4-42c19-26.9,34.7-55.8,46.5-86.7c11.7-30.4,18.3-61.8,19.2-94.1
	c0.6-19.8-1.8-39.8-3.8-59.6c-1.2-11.7-4.8-23.3-11.9-33c-4.1-5.6-4.5-10.4-1.6-16.5C765.6,432.5,769.4,413.1,769,392.9z
	 M555.6,212.7c-9,0.5-17.9,0.8-26.9,1.6c-26.5,2.4-52.3,7.7-76.5,19.2c-15.4,7.3-29.8,16.2-43.5,26.3c-0.9,0.7-1.5,1.9-2.2,2.9
	c1,0.4,2,1.1,3,1.3c6.2,1.1,12.5,1.8,18.7,3.2c18.2,3.9,36.9,6.7,54.4,12.6c26.6,8.9,50.5,23.3,69.2,44.9c3.5,4,5.5,3.4,8.4-0.1
	c9.7-12,21.4-21.7,34.4-30.1c18-11.6,37.5-19.6,58.2-24.3c15.4-3.4,31-5.8,46.6-8.7c1.2-0.2,2.2-1.2,3.3-1.8c-0.8-1-1.4-2.2-2.4-2.9
	c-5.2-3.7-10.4-7.2-15.6-10.8c-16.2-10.8-33.9-18.4-52.5-23.9C607.2,214.8,581.5,213.1,555.6,212.7z"/>
<path d="M760,392.9c0.4,20.2-3.4,39.7-12.2,57.9c-2.9,6-2.5,10.8,1.6,16.5c7.1,9.7,10.7,21.2,11.9,33c2.1,19.8,4.4,39.8,3.8,59.6
	c-0.9,32.3-7.6,63.7-19.2,94.1c-11.9,30.9-27.5,59.8-46.5,86.7c-10.3,14.6-22.1,28.1-33.4,42c-3.7,4.5-7.9,8.5-11.4,13.2
	c-1.2,1.6-1.4,4.8-0.8,6.8c4.3,13.6,8.8,27.2,13.5,40.7c1.3,3.7,1.3,6.6-1.2,10.1c-17.4,23.8-39.1,42.4-66.1,54.7
	c-12.3,5.6-25.3,8.7-38.8,10.5c-30.7,4-58.3-4.5-84.5-19.7c-15-8.7-27.3-20.5-39-32.9c-3.7-4-7.1-8.4-10-13
	c-1.2-1.9-1.8-5.1-1.2-7.2c4.5-15.1,9.4-30.1,14.3-45.1c1.1-3.4,0.5-6-1.9-8.7c-23.4-26.6-45-54.5-62.2-85.6
	c-9.2-16.8-17.3-34-24.1-51.9c-7.7-20.6-12.6-41.8-16.1-63.5c-3.7-22.7-2.8-45.5-2-68.2c0.5-13.7,4-27.5,7.5-40.9
	c1.7-6.7,6-12.9,9.8-18.8c1.8-2.8,2.4-4.9,0.9-7.7c-6.8-12.6-11.1-26.1-12.7-40.1c-1.4-12.1-1.5-24.5-0.6-36.6
	c0.7-10.2,3-20.3,5.6-30.2c4-15.1,10.2-29.4,19.5-42.2c3-4.2,6.1-8.3,8.9-12.7c4.4-6.9,10.7-7.2,17.4-4.8
	c15,5.3,29.9,10.9,44.9,16.2c2.5,0.9,5.6,1.1,8.1,0.4c40.8-10.5,79.6,11.9,90,52.6c1.9,7.3,2.8,15.4,1.6,22.7
	c-1.6,9.3,2.1,16.2,6.3,23.3c5.9,10.1,6,10,12.2,0.3c4.5-7,7.2-13.9,6.3-23.1c-5-51,42.8-90.1,92.2-76.2c3,0.9,6.9,0.3,10-0.8
	c16.2-5.3,32.2-11.3,48.5-16.5c7.2-2.3,9.5-0.6,14.3,5.5c10,12.8,18,26.8,23.9,41.9C755.8,352,760.7,372.1,760,392.9z M484.6,690.3
	c-0.1,20.5-2.3,44.9-7.2,68.9c-0.7,3.6-0.4,6.4,2.7,8.8c21.8,16.4,43.6,32.9,65.3,49.4c2.8,2.1,5.1,2.2,8,0
	c19.7-14.8,39.4-29.6,59.3-44.2c4.4-3.2,5.2-6.8,4.2-12c-6.9-34.3-9.4-68.9-6.6-103.9c3.5-43.9,13.8-86,32.3-126.1
	c0.9-2,1.2-4.3,1.8-6.5c-2.2,0.3-4.6,0.2-6.6,0.9c-31.4,10.6-60.2,25.9-84.8,48.5c-2.9,2.6-4.7,2.4-7.5,0
	c-8.3-6.9-16.6-13.9-25.6-19.9c-20.5-13.7-42.5-24.1-66.4-30.6c-1.3-0.4-2.8,0-4.2,0c0.2,1.3,0.3,2.6,0.8,3.8
	c2.1,4.9,4.5,9.7,6.5,14.6C475.4,588.3,484.5,636.4,484.6,690.3z M549,482.7c-0.5,0-1,0-1.4,0.1c-0.6-1.6-1.3-3.3-1.9-4.9
	c-6.6-17.3-13-34.6-19.7-51.8c-1.9-4.9-2.9-5-6.4-1.3c-12.3,12.8-27.2,20.4-44.9,22.9c-42.8,6.1-82.7-27-84.3-70.2
	c-0.7-19.5,4.8-36.8,17.3-51.8c2.5-3.1,2.8-5.1-1.5-6.4c-4.1-1.2-8.3-2.5-12.3-4.1c-3.8-1.6-6-0.5-8.2,2.9
	c-15.6,24.1-23,50.5-22.4,79.1c1.2,50.9,31.4,87.8,79.5,97.6c37.5,7.6,71.4,23.3,102.2,45.7c3.2,2.3,5.4,2.5,8.7,0.1
	c30.8-22.4,64.7-38.1,102.2-45.8c29.9-6.1,53.3-21.3,67.4-49c14.2-27.9,15-57.2,7.7-87.1c-3.6-14.7-9.8-28.3-18.1-40.9
	c-2-3.1-4.2-4.8-8.2-3.2c-4.5,1.8-9.1,3.1-13.7,4.6c-4,1.2-5,2.9-2,6.5c10.2,12.3,15.4,26.6,16.7,42.5c2.8,34.5-20.5,68.7-53.9,77.3
	c-28.4,7.3-53.8,1-75-19.8c-3.8-3.7-4.4-3.7-6.5,1.2c-3.9,9.2-7.5,18.5-11,27.8C555.6,463.9,552.4,473.3,549,482.7z M634.5,686
	c0,25.8,2.9,51.2,8.3,76.4c0.5,2.2,1.7,4.2,2.5,6.3c1.9-1.5,4-2.7,5.5-4.5c18.9-22,35.8-45.5,50-70.9
	c27.6-49.3,42.7-101.8,39.3-158.8c-0.9-15.8-1.8-31.6-7-46.8c-2.2-6.3-3.1-6.6-7.7-1.9c-12.1,12.3-26.3,21.3-42.4,27.5
	c-2.2,0.9-4.5,3-5.7,5.1C648.4,570.5,634.9,626.6,634.5,686z M460.1,686.7c-1.3-15.3-2.1-30.5-3.9-45.7
	c-4.8-43.2-18-83.8-38.6-122.1c-2.3-4.2-5.2-7-9.5-8.8c-13.3-5.8-24.9-14-35.1-24.3c-4.4-4.4-5.5-4.5-6.9,1.7
	c-2.7,12.1-5.5,24.4-6.6,36.7c-3.6,42.6,1.4,84.1,16.7,124.2c16.1,42.3,40,80,69.1,114.4c1,1.2,2.5,2,3.7,3c0.8-1.5,1.9-3,2.2-4.7
	C456.5,736.6,459.5,711.9,460.1,686.7z M547,895.2c37.4-1.6,67.6-18.2,91.9-46.4c1.2-1.4,1.5-4.4,1-6.4c-1-4.7-2.7-9.2-4.2-13.8
	c-3-9.4-5.9-18.7-8.9-28.1c-1-3.2-2.3-5.4-5.7-2.1c-0.7,0.7-1.6,1.2-2.4,1.8c-20.6,14.6-41.3,29.1-61.8,43.9
	c-5.2,3.8-9.5,3.4-14.9,0.1c-23.5-14.6-45.9-30.7-67.2-48.4c-4.2-3.5-5-3.3-6.7,1.9c-4,12.5-7.3,25.3-12.2,37.5
	c-3.4,8.5-1.6,13.8,4.6,20C484.4,879.3,512.5,893.6,547,895.2z M510.4,373.4c0-26.5-21.2-47.7-47.6-47.7c-26.6,0-48,21.5-47.9,48.1
	c0.1,26.3,21.6,47.6,48,47.5C489.4,421.1,510.4,399.9,510.4,373.4z M679.7,375.1c0.1-26.6-20.8-47.7-47.3-47.9
	c-26.2-0.2-48,21.2-48.1,47.4c-0.1,26.6,21.4,48.2,47.8,48.2C658.5,422.7,679.6,401.6,679.7,375.1z"/>
<path class="st0" d="M484.6,690.3c-0.1-53.9-9.3-102.1-28.1-148.3c-2-4.9-4.4-9.7-6.5-14.6c-0.5-1.2-0.5-2.5-0.8-3.8
	c1.4,0,2.9-0.4,4.2,0c23.8,6.5,45.9,16.9,66.4,30.6c9,6,17.3,13,25.6,19.9c2.9,2.4,4.7,2.7,7.5,0c24.6-22.6,53.4-37.9,84.8-48.5
	c2.1-0.7,4.4-0.6,6.6-0.9c-0.6,2.2-0.9,4.5-1.8,6.5c-18.4,40.1-28.8,82.2-32.3,126.1c-2.8,35-0.3,69.6,6.6,103.9
	c1,5.2,0.2,8.7-4.2,12c-19.9,14.6-39.6,29.3-59.3,44.2c-2.9,2.2-5.2,2.1-8,0c-21.7-16.5-43.5-33-65.3-49.4c-3.2-2.4-3.5-5.2-2.7-8.8
	C482.3,735.2,484.5,710.9,484.6,690.3z"/>
<path class="st0" d="M549,482.7c3.4-9.4,6.6-18.8,10.1-28.1c3.5-9.3,7.2-18.6,11-27.8c2.1-4.9,2.7-4.9,6.5-1.2
	c21.3,20.8,46.6,27.2,75,19.8c33.4-8.6,56.7-42.8,53.9-77.3c-1.3-15.9-6.5-30.2-16.7-42.5c-3-3.7-2.1-5.3,2-6.5
	c4.6-1.4,9.3-2.8,13.7-4.6c4-1.6,6.2,0.1,8.2,3.2c8.2,12.7,14.5,26.2,18.1,40.9c7.3,29.9,6.5,59.2-7.7,87.1
	c-14.1,27.7-37.5,42.9-67.4,49c-37.5,7.7-71.4,23.4-102.2,45.8c-3.4,2.4-5.5,2.3-8.7-0.1c-30.8-22.5-64.7-38.1-102.2-45.7
	c-48.1-9.8-78.3-46.8-79.5-97.6c-0.7-28.6,6.8-55,22.4-79.1c2.2-3.4,4.4-4.5,8.2-2.9c4,1.7,8.2,2.9,12.3,4.1
	c4.4,1.3,4.1,3.3,1.5,6.4c-12.5,15-18.1,32.3-17.3,51.8c1.6,43.2,41.5,76.3,84.3,70.2c17.7-2.5,32.6-10.1,44.9-22.9
	c3.5-3.7,4.5-3.6,6.4,1.3c6.7,17.2,13.2,34.5,19.7,51.8c0.6,1.6,1.3,3.3,1.9,4.9C548,482.7,548.5,482.7,549,482.7z"/>
<path class="st0" d="M634.5,686c0.4-59.4,13.9-115.5,42.9-167.6c1.2-2.1,3.5-4.2,5.7-5.1c16.1-6.3,30.3-15.2,42.4-27.5
	c4.6-4.7,5.5-4.4,7.7,1.9c5.2,15.2,6.1,31,7,46.8c3.4,57-11.6,109.4-39.3,158.8c-14.2,25.4-31.1,48.9-50,70.9
	c-1.5,1.8-3.7,3-5.5,4.5c-0.9-2.1-2-4.2-2.5-6.3C637.4,737.2,634.5,711.7,634.5,686z"/>
<path class="st0" d="M460.1,686.7c-0.7,25.2-3.6,49.9-8.8,74.4c-0.3,1.6-1.5,3.1-2.2,4.7c-1.2-1-2.7-1.8-3.7-3
	c-29.2-34.4-53-72.1-69.1-114.4c-15.3-40.1-20.3-81.7-16.7-124.2c1-12.4,3.8-24.6,6.6-36.7c1.4-6.2,2.5-6.1,6.9-1.7
	c10.2,10.3,21.8,18.6,35.1,24.3c4.3,1.9,7.3,4.6,9.5,8.8c20.6,38.3,33.8,78.9,38.6,122.1C458,656.2,458.9,671.5,460.1,686.7z"/>
<path class="st0" d="M547,895.2c-34.5-1.6-62.6-15.9-86.5-40c-6.1-6.2-8-11.5-4.6-20c4.9-12.1,8.2-25,12.2-37.5
	c1.7-5.2,2.4-5.4,6.7-1.9c21.3,17.6,43.7,33.7,67.2,48.4c5.4,3.4,9.6,3.7,14.9-0.1c20.5-14.8,41.2-29.3,61.8-43.9
	c0.8-0.6,1.7-1.1,2.4-1.8c3.4-3.3,4.7-1.2,5.7,2.1c2.9,9.4,5.9,18.7,8.9,28.1c1.5,4.6,3.2,9.2,4.2,13.8c0.4,2,0.2,5-1,6.4
	C614.6,877,584.4,893.6,547,895.2z"/>
<path class="st0" d="M510.4,373.4c0,26.5-21,47.7-47.5,47.8c-26.4,0.1-47.9-21.2-48-47.5c-0.1-26.6,21.3-48.1,47.9-48.1
	C489.2,325.7,510.4,346.9,510.4,373.4z"/>
<path class="st0" d="M679.7,375.1c-0.1,26.5-21.2,47.6-47.6,47.7c-26.4,0-47.9-21.6-47.8-48.2c0.1-26.2,21.9-47.6,48.1-47.4
	C658.9,327.4,679.7,348.5,679.7,375.1z"/>
<path class="st1" d="M670,255.1c-4.3-3.1-8.7-6.1-13.1-9.1c-13.6-9.1-28.5-15.5-44.1-20.1c-21-6.1-42.6-7.5-64.4-7.9
	c-7.5,0.4-15.1,0.7-22.6,1.4c-22.3,2-43.9,6.5-64.4,16.2c-13,6.1-25,13.6-36.5,22.1c-0.8,0.6-1.2,1.6-1.9,2.4
	c0.9,0.4,1.7,0.9,2.6,1.1c5.2,0.9,10.5,1.5,15.7,2.7c15.3,3.3,31,5.6,45.8,10.6c22.4,7.5,42.4,19.6,58.2,37.7
	c2.9,3.4,4.7,2.9,7.1-0.1c8.1-10.1,18-18.2,28.9-25.3c15.1-9.8,31.5-16.5,49-20.4c12.9-2.9,26.1-4.9,39.2-7.3c1-0.2,1.9-1,2.8-1.5
	C671.4,256.7,670.9,255.7,670,255.1z"/>
</svg>
